# File created by Blade
# Date/Time:  Wed Jan 21 16:09:38 2015
# Frame Rate: 120.000 fps
#------------------------------------------------------
:FULLY-SPECIFIED
:DEGREES
434
root 12.324903 33.079748 -21.799907 -191.877886 76.731779 -257.736097
Spine 67.093111 -11.913551 1.668793
Head -30.382247 -4.497265 6.507358
LeftShoulder -7.367279 -35.024130 22.326631
LeftArm -35.317773 -5.911384 -18.809696
LeftForeArm -34.601076 0.000000 -4.584836
LeftHand -10.844358 -0.000000 3.603557
LeftHandThumb1 -26.253704 0.000000 33.147579
RightShoulder -10.251406 -0.987504 -13.660927
RightArm -37.030366 46.115115 13.558508
RightForeArm 11.544835 -0.000000 10.882348
RightHand -19.668696 -0.000000 -15.929129
RightHandThumb1 -24.326973 -0.000000 -32.862282
LeftUpLeg -41.035892 -11.033320 -18.619808
LeftLeg -15.579260 -0.000000 0.000000
LeftFoot -7.708319 27.552989 15.944598
LeftToeBase -138.499680 -0.000000 0.000000
RightUpLeg -89.575700 -7.434506 -9.096420
RightLeg -1.436250 -0.000000 0.000000
RightFoot 9.471168 -26.524909 0.333790
RightToeBase 27.994186 -0.000000 -0.000000
435
root 12.312437 33.079664 -21.805183 -191.699259 76.704827 -257.551219
Spine 67.143589 -11.926874 1.746588
Head -30.273807 -4.534608 6.654028
LeftShoulder -7.282141 -34.976360 22.336024
LeftArm -35.465334 -5.984356 -18.807102
LeftForeArm -34.664811 -0.000000 -4.533985
LeftHand -10.837068 -0.000000 3.542927
LeftHandThumb1 -26.253704 0.000000 33.147579
RightShoulder -10.338436 -1.196494 -13.516895
RightArm -37.129960 46.221986 13.477685
RightForeArm 11.903737 -0.000000 10.838626
RightHand -19.660966 -0.000000 -16.094199
RightHandThumb1 -24.326973 -0.000000 -32.862282
LeftUpLeg -41.005384 -11.014325 -18.675325
LeftLeg -15.635265 -0.000000 0.000000
LeftFoot -7.680581 27.483727 15.951272
LeftToeBase -138.539169 -0.000000 0.000000
RightUpLeg -89.571449 -7.485711 -9.086622
RightLeg -1.439003 -0.000000 0.000000
RightFoot 9.453696 -26.537481 0.401469
RightToeBase 28.026002 -0.000000 -0.000000
436
root 12.300962 33.078308 -21.809217 -191.574406 76.681260 -257.416052
Spine 67.187613 -11.976132 1.705874
Head -30.129731 -4.530830 6.793182
LeftShoulder -7.286091 -34.918450 22.332224
LeftArm -35.595131 -6.002007 -18.730225
LeftForeArm -34.719382 -0.000000 -4.515596
LeftHand -10.792169 -0.000000 3.420607
LeftHandThumb1 -26.253704 0.000000 33.147579
RightShoulder -10.321605 -1.266401 -13.436927
RightArm -37.330712 46.269495 13.393992
RightForeArm 12.012156 -0.000000 10.921251
RightHand -19.712589 0.000000 -15.872200
RightHandThumb1 -24.326973 -0.000000 -32.862282
LeftUpLeg -40.975543 -10.990957 -18.739376
LeftLeg -15.677701 -0.000000 0.000000
LeftFoot -7.665080 27.446923 15.983548
LeftToeBase -138.547196 -0.000000 0.000000
RightUpLeg -89.569314 -7.530983 -9.058016
RightLeg -1.445109 -0.000000 0.000000
RightFoot 9.441707 -26.502507 0.450829
RightToeBase 27.724370 -0.000000 -0.000000
437
root 12.286857 33.077597 -21.813220 -191.472610 76.646765 -257.301187
Spine 67.198743 -12.007462 1.671297
Head -29.969688 -4.531941 6.952848
LeftShoulder -7.292793 -34.878485 22.374041
LeftArm -35.714442 -5.999234 -18.707985
LeftForeArm -34.768894 -0.000000 -4.522196
LeftHand -10.785382 -0.000000 3.338533
LeftHandThumb1 -26.253704 0.000000 33.147579
RightShoulder -10.322723 -1.320133 -13.342614
RightArm -37.523830 46.294729 13.293976
RightForeArm 12.132685 0.000000 10.945953
RightHand -19.632187 -0.000000 -15.861496
RightHandThumb1 -24.326973 -0.000000 -32.862282
LeftUpLeg -40.958028 -10.995954 -18.789288
LeftLeg -15.703903 -0.000000 0.000000
LeftFoot -7.652284 27.430364 15.991924
LeftToeBase -138.579337 -0.000000 0.000000
RightUpLeg -89.570982 -7.584677 -9.032805
RightLeg -1.443070 -0.000000 0.000000
RightFoot 9.422192 -26.478504 0.534385
RightToeBase 27.962173 -0.000000 -0.000000
438
root 12.276352 33.075814 -21.816559 -191.596037 76.631183 -257.376281
Spine 67.234608 -11.971280 1.593371
Head -29.832819 -4.520043 7.146815
LeftShoulder -7.279638 -34.849687 22.419832
LeftArm -35.821146 -6.050077 -18.647892
LeftForeArm -34.835205 -0.000000 -4.496639
LeftHand -10.866188 -0.000000 3.423711
LeftHandThumb1 -26.253704 0.000000 33.147579
RightShoulder -10.322007 -1.367994 -13.229477
RightArm -37.814977 46.349494 13.152258
RightForeArm 12.207433 -0.000000 11.093654
RightHand -19.730796 -0.000000 -15.947895
RightHandThumb1 -24.326973 -0.000000 -32.862282
LeftUpLeg -40.884777 -10.965591 -18.875047
LeftLeg -15.757779 -0.000000 0.000000
LeftFoot -7.601004 27.429119 16.016387
LeftToeBase -138.618326 -0.000000 0.000000
RightUpLeg -89.543660 -7.601621 -9.012311
RightLeg -1.452269 -0.000000 0.000000
RightFoot 9.470854 -26.520893 0.785935
RightToeBase 27.738588 -0.000000 -0.000000
